# xmcd
#
# Track frame offsets:
#	150
#	16969
#	33959
#	49211
#	64578
#	79783
#	98497
#	114888
#	130269
#	147893
#	163916
#	183040
#	198201
#	215782
#	239107
#	258528
#	274994
#	296106
#	312616
#	331431
#
# Disc length: 4668 seconds
#
# Revision: 0
# Processed by: cddbd v1.5.2PL0 Copyright (c) Steve Scherf et al.
# Submitted via: audiograbber 1.83.01
#
DISCID=2f123a14
DTITLE=Juliane Werding - Das Beste der 70er CD3
DYEAR=1900
DGENRE=
TTITLE0=oh Mann oh Mann wo hat der Mann nur seine Augen
TTITLE1=bei mir liegst du richtig
TTITLE2=Sonnenbrand in Westerland
TTITLE3=ich hab was Läuten hören
TTITLE4=eine Nummer zu groß
TTITLE5=und darum Herr Richter
TTITLE6=verzeih mir , zu sagen ist so schwehr
TTITLE7=Friedhelm , der Killer
TTITLE8=Herr Wirt, ich will zahlen
TTITLE9=nur noch eine Nacht
TTITLE10=Zärtlichkeit war nur ein Wort
TTITLE11=Postfach auf der grünen Wiese
TTITLE12=Andre ist wieder unterwegs
TTITLE13=Hotel Royal
TTITLE14=ein Spiel, das nur Verlierer kennt
TTITLE15=Klappe auf, Klappe zu
TTITLE16=ein Dutzend Hühner und 2 Pferde
TTITLE17=du brauchst eine Frau, Jonny
TTITLE18=der Prozeß
TTITLE19=Alaska
EXTD=
EXTT0=
EXTT1=
EXTT2=
EXTT3=
EXTT4=
EXTT5=
EXTT6=
EXTT7=
EXTT8=
EXTT9=
EXTT10=
EXTT11=
EXTT12=
EXTT13=
EXTT14=
EXTT15=
EXTT16=
EXTT17=
EXTT18=
EXTT19=
PLAYORDER=
